<?xml version="1.0" encoding="utf-8"?>
<!-- Generator: Adobe Illustrator 24.1.2, SVG Export Plug-In . SVG Version: 6.00 Build 0)  -->
<svg version="1.1" id="레이어_1" xmlns="http://www.w3.org/2000/svg" xmlns:xlink="http://www.w3.org/1999/xlink" x="0px"
	 y="0px" viewBox="0 0 311.3 316.8" style="enable-background:new 0 0 311.3 316.8;" xml:space="preserve">
<style type="text/css">
	.st0{fill:#171717;}
</style>
<g>
	<path class="st0" d="M302.4,47.1c-4.1-17.4-8.9-31.4-26.5-38.5c-19.3-7.8-42.1-5.2-62.3-5C187,3.8,160.7,1.9,134.4,1
		c-6.6-0.2-20.1-1.9-26.8,0.2c-1.8,0.6-3.3,1.6-4.6,2.7c-2.4-0.1-4.9-0.1-7.3-0.2C78.1,3,59.5-2.1,41.9,1
		C10.2,6.8,3.8,42.7,2.2,69.6c-3.2,54-2.3,109.5-0.6,163.5c1.1,33.8,2.9,68.8,39.8,78.4c44.6,11.6,92.2,0.4,137.3,0.2
		c35.5-0.1,78.3,3.9,108.8-18.3C318,271.4,310,211.3,309.8,179c-0.1-23.1-0.2-46.5,1.2-69.6C312.4,86.6,307.6,69.3,302.4,47.1z
		 M222.4,213.5c-11.1,15.1-33.6,22.6-51,26.8c-40.8,10-87.6-18.2-93.4-60.5c-6.1-43.9,11.2-91.1,54.5-96.8c0.7-1,1.7-1.7,3.2-2.1
		c24.6-5.2,40.5-6,62.5,6.7c21.9,12.6,31.7,34.9,36.1,59.5C238.1,167.9,235.4,195.8,222.4,213.5z M250.7,64.6
		c-4.4,6.9-16.5,8.8-22.3,2.6c-5.8-6.3-2.6-16.8,1.6-22.9c2-2.9,3.9-6.2,7.9-6.2c2.8,0,5,1.6,6.7,3.7c1.1-0.3,2.4-0.2,3.5,0.7
		C254.6,47.4,255,57.9,250.7,64.6z"/>
	<path class="st0" d="M139,98.5c-1.2,0-2.2-0.4-3-1c-15.9,4.7-28,13.2-34,32.9c-4.3,14.3-6,31.8-3.1,46.6
		c6.8,35.8,45.3,49.5,77.2,39.3c37.1-11.9,44.9-45.5,33.7-80.7C198.2,99.9,171.2,98.8,139,98.5z"/>
</g>
</svg>
