<svg id="레이어_1" data-name="레이어 1" xmlns="http://www.w3.org/2000/svg" viewBox="0 0 406.58 328.79"><defs><style>.cls-1{fill:#161717;}</style></defs><path class="cls-1" d="M2.11,121.91c2.71,31.8,24.59,61.77,48.69,81.56,24.36,20,45.39,32.75,76.2,32.79a3.88,3.88,0,0,0,.66.14c-.36,28.41-.67,58.15,1.93,86.33.44,4.69,5.3,8.48,9.85,5.65,9.38-5.83,14.86-20.29,20.17-29.32,5.8-9.87,17-22.59,20.46-34.73a6,6,0,0,0,2.8-1.24c3.23-2.48,17.3-.84,21.64-1.31,12.05-1.31,23.88-2,35.94-2.9,16.11-1.16,32.17-6.62,47.49-11.42C322.61,236.58,361,222,387.08,195.59,433.79,148.32,395.6,73.49,350,40.73,319.8,19,279.54,10.52,243.53,4.68c-36.67-5.95-72.74-5-109.46.08C75.36,13-3.78,52.66,2.11,121.91Zm110.17-11.29c3-7.18,10.58-12.94,18.7-12.58,7.14.32,14,3.84,17.67,10.13a20.28,20.28,0,0,1,2.43,13c-.64,4.76-2.56,8-5.63,11.75l-.34.41c-2.94,3.58-9.62,6.06-14.13,5.86-5-.23-10.82-1.83-14.14-5.86l-.33-.41a26.89,26.89,0,0,1-5.26-9C109.85,119.63,110.56,114.69,112.28,110.62Zm87.9,26.75c-3.24-3.24-5.69-8.56-5.48-13.22.46-10.13,8.22-18.7,18.7-18.7a19.28,19.28,0,0,1,13.23,5.48c3.24,3.24,5.68,8.56,5.47,13.22-.45,10.13-8.21,18.7-18.7,18.7A19.3,19.3,0,0,1,200.18,137.37Zm97.9-25.25a20.57,20.57,0,0,1,14.1,5.84c3.46,3.45,6.06,9.13,5.84,14.09-.49,10.8-8.76,19.94-19.94,19.94A20.57,20.57,0,0,1,284,146.15c-3.46-3.46-6.06-9.13-5.84-14.1C278.63,121.25,286.91,112.12,298.08,112.12Z" transform="translate(-1.8 -0.56)"/></svg>